<svg width="27" height="31" viewBox="0 0 27 31" fill="none" xmlns="http://www.w3.org/2000/svg">
<path d="M1.51001 0.133036L19.5207 10.5287L26.4546 14.5345C27.1052 14.9259 27.1105 15.8612 26.4647 16.2577L26.4342 16.2781L1.52517 30.6591L1.50472 30.6692C1.25065 30.8117 0.971068 30.8268 0.727098 30.7556C0.320481 30.6336 0 30.2626 0 29.7797V1.01749C0 0.534599 0.32024 0.163592 0.727098 0.0416069C0.97612 -0.0298517 1.2557 -0.0144532 1.51001 0.133036Z" fill="#47BCFF"/>
<path d="M1.50997 0.13285L19.5207 10.5285L14.9964 15.3985L0.727051 0.0411811C0.976073 -0.030037 1.25565 -0.0146385 1.50997 0.13285Z" fill="#0BDF74"/>
<path d="M19.5206 10.5285L26.4545 14.5343C27.1051 14.9258 27.1104 15.861 26.4646 16.2575L26.4341 16.2779L19.5206 20.2633L14.9963 15.3985L19.5206 10.5285Z" fill="#FDBA21"/>
<path d="M14.9964 15.3985L19.5207 20.2635L1.52513 30.6592L1.50467 30.6693C1.2506 30.8117 0.971021 30.8269 0.727051 30.7556L14.9964 15.3985Z" fill="#FB434C"/>
</svg>
